<svg width="206" height="41" viewBox="0 0 206 41" fill="none" xmlns="http://www.w3.org/2000/svg">
<mask id="mask0_1008314_6573" style="mask-type:luminance" maskUnits="userSpaceOnUse" x="17" y="1" width="22" height="22">
<path d="M17.6621 1.28906H38.4515V22.0307H17.6621V1.28906Z" fill="white"/>
</mask>
<g mask="url(#mask0_1008314_6573)">
<path d="M28.122 22.0117C33.8234 22.0117 38.4511 17.3688 38.4511 11.6504C38.4511 5.93119 33.8234 1.28906 28.122 1.28906C22.4214 1.28906 17.793 5.93119 17.793 11.6504C17.8135 17.3688 22.4214 21.9911 28.122 22.0117ZM21.9376 17.6432L23.8304 17.5591L24.3356 19.3952C23.4517 18.9518 22.6318 18.361 21.9376 17.6432ZM21.2007 9.39237L19.602 10.4472C19.749 9.45582 20.044 8.48504 20.5278 7.59833L21.2007 9.39237ZM22.3582 10.7002L24.0201 11.418L25.0717 14.8157L24.2724 15.8079L20.6749 15.9761C20.0645 14.9212 19.6866 13.7609 19.5601 12.5363L22.3582 10.7002ZM28.122 9.60334L30.4149 11.4394L29.5523 14.2249H26.7123L25.8291 11.4394L28.122 9.60334ZM32.2247 11.418L33.8867 10.7002L36.684 12.5363C36.5583 13.7395 36.1796 14.9212 35.5692 15.9761L31.9717 15.8079L31.1724 14.8157L32.2247 11.418ZM35.717 7.59833C36.1796 8.48504 36.495 9.45582 36.6421 10.4472L35.0434 9.39237L35.717 7.59833ZM26.3344 20.0916L25.5137 17.0523L26.3763 15.9761H29.9105L30.7731 17.0523L29.9524 20.0916C28.7324 20.3446 27.5124 20.3446 26.3344 20.0916ZM31.8879 19.3952L32.3931 17.5591L34.2859 17.6432C33.6131 18.361 32.7924 18.9518 31.8879 19.3952ZM34.5176 5.88916L33.3182 9.0545L31.2989 9.94121L28.9846 8.08372V5.86774L31.6143 3.75805C32.7292 4.26406 33.7183 4.98183 34.5176 5.88916ZM29.6156 3.14576L28.122 4.34892L26.6285 3.14576C27.6176 2.97682 28.6273 2.97682 29.6156 3.14576ZM24.6297 3.75805L27.2594 5.86774V8.08372L24.9452 9.94121L22.9053 9.07592L21.7059 5.91057C22.5472 4.98183 23.5363 4.26406 24.6297 3.75805Z" fill="white"/>
</g>
<mask id="mask1_1008314_6573" style="mask-type:luminance" maskUnits="userSpaceOnUse" x="0" y="19" width="21" height="21">
<path d="M0.5 19.3911H20.4956V39.2889H0.5V19.3911Z" fill="white"/>
</mask>
<g mask="url(#mask1_1008314_6573)">
<path d="M20.1277 19.6694C19.7917 19.3315 19.2445 19.3315 18.9077 19.6694L0.836597 37.797C0.49978 38.134 0.49978 38.6829 0.836597 39.0208C1.17341 39.3586 1.72055 39.3586 2.05657 39.0208L20.1277 20.8932C20.4645 20.5553 20.4645 20.0065 20.1277 19.6694Z" fill="white"/>
</g>
<path d="M26.1447 23.1298C25.8079 22.7927 25.2616 22.7927 24.9247 23.1298L13.7331 34.3572C13.3963 34.6942 13.3963 35.2431 13.7331 35.581C14.0486 35.9188 14.5743 35.9394 14.9112 35.623C14.9317 35.6016 14.9317 35.6016 14.9531 35.581L26.1447 24.3543C26.4815 23.9951 26.4815 23.4676 26.1447 23.1298Z" fill="white"/>
<path d="M4.64446 26.9292L16.6987 14.8372C17.0355 14.4994 17.0355 13.9505 16.6782 13.6127C16.3414 13.2756 15.8156 13.2756 15.4788 13.6127L3.42449 25.7046C3.08767 26.0424 3.08767 26.5913 3.42449 26.9292C3.78186 27.2036 4.28709 27.2036 4.64446 26.9292Z" fill="white"/>
<path d="M34.391 23.1298L24.9245 32.6266C24.5877 32.9637 24.5877 33.5125 24.9245 33.8504C25.0929 34.0193 25.4922 34.4198 26.1445 33.8504L35.6109 24.3543C35.9477 24.0165 35.9477 23.4676 35.6109 23.1298C35.2749 22.7927 34.7278 22.7927 34.391 23.1298Z" fill="white"/>
<path d="M22.3587 35.2012L20.6335 36.9317C20.2967 37.2688 20.2967 37.8177 20.6335 38.1555C20.9489 38.4934 21.4747 38.514 21.8115 38.1976C21.8329 38.1769 21.8534 38.1769 21.8534 38.1555L23.5786 36.4249C23.9155 36.0871 23.9155 35.539 23.5786 35.2012C23.2418 34.8633 22.6947 34.8633 22.3587 35.2012Z" fill="white"/>
<path d="M26.1451 27.4349C25.8082 27.0979 25.2619 27.0979 24.9251 27.4349L23.1999 29.1655C22.8631 29.5034 22.8631 30.0522 23.1999 30.3893C23.5573 30.6851 24.0625 30.6851 24.4199 30.3893L26.1451 28.6595C26.4819 28.3216 26.4819 27.7728 26.1451 27.4349Z" fill="white"/>
<path d="M12.0278 21.4004L10.3034 23.1302C9.96658 23.468 9.96658 24.0169 10.3034 24.3547C10.6608 24.6498 11.166 24.6498 11.5234 24.3547L13.2486 22.6242C13.5846 22.2863 13.5846 21.7375 13.2486 21.4004C12.9117 21.0625 12.3646 21.0625 12.0278 21.4004Z" fill="white"/>
<path d="M9.7982 13.9923L14.9525 8.82191C15.2893 8.48484 15.2893 7.936 14.9311 7.59813C14.5951 7.26026 14.0685 7.26026 13.7325 7.59813L8.57823 12.7685C8.24141 13.1063 8.24141 13.6552 8.59878 13.9923C8.9356 14.3087 9.46138 14.3087 9.7982 13.9923Z" fill="white"/>
<path d="M5.50774 18.2976L7.23295 16.567C7.56976 16.23 7.56976 15.6811 7.2116 15.3432C6.87557 15.0054 6.349 15.0054 6.01297 15.3432L4.28777 17.0738C3.95095 17.4117 3.95095 17.9597 4.28777 18.2976C4.64514 18.572 5.15037 18.572 5.50774 18.2976Z" fill="white"/>
<path d="M62.168 24.1037L64.7633 9.29492H68.3267L65.9314 22.8271L67.3313 24.359H73.6945L75.6034 22.8271L77.9987 9.29492H81.5621L78.9669 24.1037L74.8171 27.4229H65.145L62.168 24.1037Z" fill="#FFFCF7" fill-opacity="0.4"/>
<path d="M90.7174 12.3588H84.0996L84.6359 9.29492H101.435L100.899 12.3588H94.2808L91.6855 27.1676H88.1221L90.7174 12.3588Z" fill="#FFFCF7" fill-opacity="0.4"/>
<path d="M104.511 9.29492H117.619L120.059 11.9758L119.323 16.1887L117.441 17.5929L119.55 20.0185L118.764 24.4867L115.378 27.1676H101.379L104.511 9.29492ZM114.26 24.1037L115.428 23.2101L115.837 20.9122L114.664 19.6355H106.265L105.479 24.1037H114.26ZM114.31 16.5716L115.914 15.295L116.296 13.2524L115.428 12.3588H107.538L106.801 16.5716H114.31Z" fill="#FFFCF7" fill-opacity="0.4"/>
<path d="M122.299 24.1041L124.358 12.3592L128.508 9.04004H138.816L141.793 12.3592L139.734 24.1041L135.584 27.4233H125.276L122.299 24.1041ZM134.462 24.3595L136.371 22.8275L138.002 13.6359L136.625 12.1039H129.626L127.694 13.6359L126.062 22.8275L127.462 24.3595H134.462Z" fill="#FFFCF7" fill-opacity="0.4"/>
<path d="M146.677 9.29492H150.24L147.645 24.1037H158.589L158.053 27.1676H143.545L146.677 9.29492Z" fill="#FFFCF7" fill-opacity="0.4"/>
<path d="M164.261 9.29492H167.824L172.864 18.9972L181.314 9.29492H184.877L181.746 27.1676H178.182L180.246 15.4227L173.424 23.0824H170.878L166.756 15.4227L164.692 27.1676H161.129L164.261 9.29492Z" fill="#FFFCF7" fill-opacity="0.4"/>
<path d="M189.606 9.29492H204.878L204.342 12.3588H192.633L191.87 16.6993H200.778L200.246 19.7632H191.338L190.574 24.1037H202.537L202.001 27.1676H186.475L189.606 9.29492Z" fill="#FFFCF7" fill-opacity="0.4"/>
<path d="M61.043 22.9758L63.6383 8.16699H67.2017L64.8064 21.6991L66.2063 23.2311H72.5695L74.4785 21.6991L76.8738 8.16699H80.4372L77.8419 22.9758L73.6921 26.295H64.02L61.043 22.9758Z" fill="#FFFCF7"/>
<path d="M89.5924 11.2309H82.9746L83.5109 8.16699H100.31L99.7735 11.2309H93.1558L90.5605 26.0396H86.9971L89.5924 11.2309Z" fill="#FFFCF7"/>
<path d="M103.386 8.16699H116.494L118.935 10.8479L118.198 15.0607L116.316 16.465L118.425 18.8906L117.639 23.3587L114.253 26.0396H100.254L103.386 8.16699ZM113.135 22.9758L114.303 22.0821L114.712 19.7842L113.539 18.5076H105.14L104.354 22.9758H113.135ZM113.185 15.4437L114.789 14.1671L115.171 12.1245L114.303 11.2309H106.413L105.676 15.4437H113.185Z" fill="#FFFCF7"/>
<path d="M121.174 22.9752L123.233 11.2303L127.383 7.91113H137.691L140.668 11.2303L138.609 22.9752L134.459 26.2944H124.151L121.174 22.9752ZM133.337 23.2305L135.246 21.6986L136.877 12.507L135.5 10.975H128.501L126.569 12.507L124.937 21.6986L126.337 23.2305H133.337Z" fill="#FFFCF7"/>
<path d="M145.552 8.16699H149.115L146.52 22.9758H157.464L156.928 26.0396H142.42L145.552 8.16699Z" fill="#FFFCF7"/>
<path d="M163.136 8.16699H166.699L171.74 17.8693L180.189 8.16699H183.752L180.621 26.0396H177.057L179.121 14.2948L172.299 21.9545H169.753L165.631 14.2948L163.567 26.0396H160.004L163.136 8.16699Z" fill="#FFFCF7"/>
<path d="M188.481 8.16699H203.753L203.217 11.2309H191.508L190.745 15.5714H199.653L199.121 18.6353H190.213L189.449 22.9758H201.412L200.876 26.0396H185.35L188.481 8.16699Z" fill="#FFFCF7"/>
<path d="M50.5527 12.4579H46.6211L47.1711 9.30739H51.0981L51.8844 4.97145L57.5795 0.439453H65.0426L64.4926 3.59452H58.6021L55.1478 6.34837L54.6342 9.30739H60.5247L59.9748 12.4579H54.0842L51.3753 28.019H47.8392L50.5527 12.4579Z" fill="#FFFCF7"/>
<path d="M125.139 34.2437H129.186L130.343 35.2401V38.6154L129.186 39.6118H125.139V34.2437ZM128.855 39.0015L129.559 38.3842V35.4736L128.855 34.8563H125.927V39.0038H128.855V39.0015Z" fill="white"/>
<path d="M134.35 34.2437H139.138V34.8563H135.138V36.6249H138.233V37.2375H135.138V39.0061H139.223V39.6188H134.352V34.2437H134.35Z" fill="white"/>
<path d="M142.656 39.0039H146.243L146.865 38.4653V37.737L146.243 37.1984H143.646L142.574 36.2782V35.1662L143.646 34.2461H147.363V34.8587H143.972L143.355 35.3974V36.0101L144.015 36.588H146.574L147.646 37.5081V38.6988L146.574 39.6189H142.656V39.0062V39.0039Z" fill="white"/>
<path d="M151.41 34.2437H155.457L156.614 35.2401V38.6154L155.457 39.6118H151.41V34.2437ZM155.127 39.0015L155.831 38.3842V35.4736L155.127 34.8563H152.199V39.0038H155.127V39.0015Z" fill="white"/>
<path d="M160.619 34.2437H165.408V34.8563H161.408V36.6249H164.502V37.2375H161.408V39.0061H165.492V39.6188H160.622V34.2437H160.619Z" fill="white"/>
<path d="M174.012 39.0038H175.251V34.8563H174.012V34.2437H175.992V39.0015H177.231V39.6141H174.012V39.0015V39.0038Z" fill="white"/>
<path d="M181.032 39.0039H184.089L184.788 38.3866V37.5428H181.693L180.621 36.6227V35.0876L181.693 34.1675H184.497L185.569 35.0876V38.6178L184.412 39.6143H181.029V39.0016L181.032 39.0039ZM184.788 36.9279V35.3188L184.171 34.7801H182.019L181.402 35.3188V36.3938L182.019 36.9279H184.788Z" fill="white"/>
<path d="M189.623 39.0039H192.681L193.38 38.3866V37.5428H190.285L189.213 36.6227V35.0876L190.285 34.1675H193.088L194.161 35.0876V38.6178L193.004 39.6143H189.621V39.0016L189.623 39.0039ZM193.38 36.9279V35.3188L192.763 34.7801H190.611L189.994 35.3188V36.3938L190.611 36.9279H193.38Z" fill="white"/>
<path d="M198.215 39.0039H201.272L201.971 38.3866V37.5428H198.877L197.805 36.6227V35.0876L198.877 34.1675H201.68L202.752 35.0876V38.6178L201.596 39.6143H198.213V39.0016L198.215 39.0039ZM201.971 36.9279V35.3188L201.354 34.7801H199.203L198.586 35.3188V36.3938L199.203 36.9279H201.971Z" fill="white"/>
</svg>
