<svg width="131" height="33" viewBox="0 0 131 33" fill="none" xmlns="http://www.w3.org/2000/svg">
<mask id="mask0_1007523_32425" style="mask-type:luminance" maskUnits="userSpaceOnUse" x="14" y="0" width="19" height="18">
<path d="M14.6689 0.239502H32.4387V17.7062H14.6689V0.239502Z" fill="white"/>
</mask>
<g mask="url(#mask0_1007523_32425)">
<path d="M23.6105 17.6901C28.4838 17.6901 32.4393 13.7803 32.4393 8.96482C32.4393 4.14867 28.4838 0.239502 23.6105 0.239502C18.7379 0.239502 14.7817 4.14867 14.7817 8.96482C14.7993 13.7803 18.7379 17.6728 23.6105 17.6901ZM18.3243 14.0114L19.9422 13.9406L20.3741 15.4868C19.6185 15.1134 18.9177 14.6158 18.3243 14.0114ZM17.6945 7.06334L16.328 7.95163C16.4537 7.11677 16.7058 6.29927 17.1194 5.55257L17.6945 7.06334ZM18.6839 8.16469L20.1044 8.76913L21.0032 11.6304L20.32 12.4659L17.2451 12.6075C16.7233 11.7192 16.4003 10.7421 16.2922 9.71086L18.6839 8.16469ZM23.6105 7.241L25.5704 8.78717L24.8331 11.1328H22.4055L21.6507 8.78717L23.6105 7.241ZM27.1173 8.76913L28.5378 8.16469L30.9289 9.71086C30.8214 10.724 30.4977 11.7192 29.976 12.6075L26.901 12.4659L26.2178 11.6304L27.1173 8.76913ZM30.1023 5.55257C30.4977 6.29927 30.7673 7.11677 30.893 7.95163L29.5266 7.06334L30.1023 5.55257ZM22.0825 16.0732L21.381 13.5138L22.1183 12.6075H25.1392L25.8765 13.5138L25.175 16.0732C24.1322 16.2862 23.0895 16.2862 22.0825 16.0732ZM26.8294 15.4868L27.2612 13.9406L28.8791 14.0114C28.304 14.6158 27.6025 15.1134 26.8294 15.4868ZM29.0771 4.11327L28.0519 6.77882L26.3259 7.52552L24.3478 5.96132V4.09523L26.5956 2.31865C27.5485 2.74476 28.3939 3.3492 29.0771 4.11327ZM24.8871 1.80303L23.6105 2.81622L22.3339 1.80303C23.1793 1.66077 24.0424 1.66077 24.8871 1.80303ZM20.6255 2.31865L22.8732 4.09523V5.96132L20.8951 7.52552L19.1515 6.79685L18.1263 4.1313C18.8454 3.3492 19.6908 2.74476 20.6255 2.31865Z" fill="white"/>
</g>
<mask id="mask1_1007523_32425" style="mask-type:luminance" maskUnits="userSpaceOnUse" x="0" y="15" width="18" height="18">
<path d="M0 15.4834H17.0912V32.2394H0V15.4834Z" fill="white"/>
</mask>
<g mask="url(#mask1_1007523_32425)">
<path d="M16.7773 15.7178C16.4901 15.4333 16.0224 15.4333 15.7345 15.7178L0.288187 30.9831C0.000291902 31.2669 0.000291902 31.7291 0.288187 32.0136C0.576082 32.2982 1.04374 32.2982 1.33096 32.0136L16.7773 16.7483C17.0652 16.4638 17.0652 16.0016 16.7773 15.7178Z" fill="white"/>
</g>
<path d="M21.92 18.6318C21.6321 18.348 21.1651 18.348 20.8772 18.6318L11.3111 28.0865C11.0232 28.3703 11.0232 28.8325 11.3111 29.117C11.5808 29.4016 12.0302 29.4189 12.3181 29.1524C12.3357 29.1344 12.3357 29.1344 12.3539 29.117L21.92 19.6631C22.2079 19.3605 22.2079 18.9164 21.92 18.6318Z" fill="white"/>
<path d="M3.54288 21.8311L13.8463 11.6484C14.1342 11.3639 14.1342 10.9017 13.8287 10.6172C13.5408 10.3333 13.0914 10.3333 12.8035 10.6172L2.5001 20.7998C2.21221 21.0844 2.21221 21.5465 2.5001 21.8311C2.80557 22.0622 3.23741 22.0622 3.54288 21.8311Z" fill="white"/>
<path d="M28.9685 18.6318L20.8771 26.6292C20.5892 26.913 20.5892 27.3752 20.8771 27.6597C21.021 27.802 21.3623 28.1393 21.9198 27.6597L30.0113 19.6631C30.2992 19.3785 30.2992 18.9164 30.0113 18.6318C29.7241 18.348 29.2564 18.348 28.9685 18.6318Z" fill="white"/>
<path d="M18.6837 28.7971L17.2091 30.2545C16.9212 30.5383 16.9212 31.0005 17.2091 31.285C17.4787 31.5695 17.9281 31.5869 18.216 31.3204C18.2343 31.3031 18.2519 31.3031 18.2519 31.285L19.7265 29.8277C20.0144 29.5432 20.0144 29.0817 19.7265 28.7971C19.4386 28.5126 18.9709 28.5126 18.6837 28.7971Z" fill="white"/>
<path d="M21.9198 22.2571C21.6319 21.9732 21.165 21.9732 20.8771 22.2571L19.4024 23.7144C19.1145 23.9989 19.1145 24.4611 19.4024 24.745C19.7079 24.9941 20.1398 24.9941 20.4452 24.745L21.9198 23.2883C22.2077 23.0038 22.2077 22.5416 21.9198 22.2571Z" fill="white"/>
<path d="M9.85392 17.1753L8.37998 18.632C8.09209 18.9165 8.09209 19.3787 8.37998 19.6632C8.68545 19.9117 9.11729 19.9117 9.42276 19.6632L10.8974 18.2059C11.1846 17.9213 11.1846 17.4592 10.8974 17.1753C10.6095 16.8908 10.1418 16.8908 9.85392 17.1753Z" fill="white"/>
<path d="M7.94844 10.937L12.354 6.58306C12.6419 6.2992 12.6419 5.83702 12.3358 5.5525C12.0486 5.26798 11.5985 5.26798 11.3113 5.5525L6.90567 9.90648C6.61777 10.191 6.61777 10.6532 6.92324 10.937C7.21113 11.2035 7.66055 11.2035 7.94844 10.937Z" fill="white"/>
<path d="M4.27969 14.5624L5.75431 13.105C6.04221 12.8212 6.04221 12.359 5.73606 12.0745C5.44884 11.79 4.99875 11.79 4.71154 12.0745L3.23692 13.5318C2.94902 13.8163 2.94902 14.2778 3.23692 14.5624C3.54238 14.7935 3.97423 14.7935 4.27969 14.5624Z" fill="white"/>
<path d="M45.8994 27.8298L47.443 19.1526H49.5623L48.1377 27.0818L48.9703 27.9794H52.7548L53.8902 27.0818L55.3148 19.1526H57.4341L55.8906 27.8298L53.4225 29.7747H47.67L45.8994 27.8298Z" fill="#FFFCF7" fill-opacity="0.4"/>
<path d="M62.8803 20.9479H58.9443L59.2633 19.1526H69.2545L68.9355 20.9479H64.9996L63.456 29.6251H61.3367L62.8803 20.9479Z" fill="#FFFCF7" fill-opacity="0.4"/>
<path d="M71.0837 19.1526H78.8799L80.3315 20.7235L79.8936 23.192L78.7744 24.0148L80.0287 25.4361L79.5611 28.0542L77.5472 29.6251H69.2212L71.0837 19.1526ZM76.8822 27.8298L77.5769 27.3062L77.8202 25.9597L77.1228 25.2117H72.1272L71.6595 27.8298H76.8822ZM76.9119 23.4164L77.8661 22.6684L78.0932 21.4715L77.5769 20.9479H72.8841L72.4462 23.4164H76.9119Z" fill="#FFFCF7" fill-opacity="0.4"/>
<path d="M81.6626 27.8298L82.8872 20.9478L85.3552 19.0029H91.4862L93.2568 20.9478L92.0322 27.8298L89.5642 29.7747H83.4332L81.6626 27.8298ZM88.8965 27.9794L90.0318 27.0817L91.0023 21.6959L90.1832 20.7982H86.0202L84.8713 21.6959L83.9009 27.0817L84.7335 27.9794H88.8965Z" fill="#FFFCF7" fill-opacity="0.4"/>
<path d="M96.1618 19.1526H98.2812L96.7376 27.8298H103.247L102.928 29.6251H94.2993L96.1618 19.1526Z" fill="#FFFCF7" fill-opacity="0.4"/>
<path d="M106.62 19.1526H108.739L111.737 24.8377L116.762 19.1526H118.882L117.019 29.6251H114.9L116.127 22.7432L112.07 27.2314H110.556L108.104 22.7432L106.877 29.6251H104.757L106.62 19.1526Z" fill="#FFFCF7" fill-opacity="0.4"/>
<path d="M121.694 19.1526H130.777L130.458 20.9479H123.494L123.04 23.4912H128.339L128.022 25.2865H122.724L122.27 27.8298H129.385L129.066 29.6251H119.832L121.694 19.1526Z" fill="#FFFCF7" fill-opacity="0.4"/>
<path d="M45.2305 27.1687L46.774 18.4915H48.8934L47.4688 26.4207L48.3013 27.3183H52.0859L53.2212 26.4207L54.6459 18.4915H56.7652L55.2216 27.1687L52.7536 29.1136H47.0011L45.2305 27.1687Z" fill="#FFFCF7"/>
<path d="M62.2108 20.2867H58.2749L58.5939 18.4915H68.5851L68.2661 20.2867H64.3302L62.7866 28.964H60.6673L62.2108 20.2867Z" fill="#FFFCF7"/>
<path d="M70.4143 18.4915H78.2104L79.6621 20.0623L79.2241 22.5309L78.105 23.3537L79.3593 24.775L78.8916 27.3931L76.8777 28.964H68.5518L70.4143 18.4915ZM76.2127 27.1687L76.9075 26.6451L77.1508 25.2986L76.4533 24.5506H71.4577L70.9901 27.1687H76.2127ZM76.2425 22.7553L77.1967 22.0072L77.4238 20.8104L76.9075 20.2867H72.2146L71.7767 22.7553H76.2425Z" fill="#FFFCF7"/>
<path d="M80.9941 27.1686L82.2187 20.2867L84.6868 18.3418H90.8177L92.5883 20.2867L91.3638 27.1686L88.8957 29.1135H82.7648L80.9941 27.1686ZM88.228 27.3182L89.3634 26.4206L90.3338 21.0347L89.5147 20.1371H85.3518L84.2029 21.0347L83.2324 26.4206L84.065 27.3182H88.228Z" fill="#FFFCF7"/>
<path d="M95.4924 18.4915H97.6118L96.0682 27.1687H102.578L102.259 28.964H93.6299L95.4924 18.4915Z" fill="#FFFCF7"/>
<path d="M105.951 18.4915H108.07L111.068 24.1765L116.093 18.4915H118.213L116.35 28.964H114.231L115.458 22.082L111.401 26.5703H109.887L107.435 22.082L106.208 28.964H104.088L105.951 18.4915Z" fill="#FFFCF7"/>
<path d="M121.025 18.4915H130.108L129.789 20.2867H122.825L122.371 22.8301H127.67L127.353 24.6254H122.055L121.601 27.1687H128.716L128.397 28.964H119.163L121.025 18.4915Z" fill="#FFFCF7"/>
<path d="M38.9921 21.0063H36.6538L36.9809 19.1603H39.3165L39.7842 16.6196L43.1713 13.9641H47.61L47.2829 15.8128H43.7795L41.7251 17.4265L41.4196 19.1603H44.923L44.5959 21.0063H41.0925L39.4814 30.1244H37.3783L38.9921 21.0063Z" fill="#FFFCF7"/>
</svg>
