<svg width="179" height="57" viewBox="0 0 179 57" fill="none" xmlns="http://www.w3.org/2000/svg">
<mask id="mask0_1007523_36210" style="mask-type:luminance" maskUnits="userSpaceOnUse" x="20" y="0" width="25" height="25">
<path d="M20.0088 0.554688H44.247V24.3795H20.0088V0.554688Z" fill="white"/>
</mask>
<g mask="url(#mask0_1007523_36210)">
<path d="M32.2047 24.3576C38.8519 24.3576 44.2473 19.0246 44.2473 12.4562C44.2473 5.88685 38.8519 0.554688 32.2047 0.554688C25.5584 0.554688 20.1621 5.88685 20.1621 12.4562C20.1861 19.0246 25.5584 24.334 32.2047 24.3576ZM24.9943 19.3398L27.2011 19.2432L27.7901 21.3522C26.7595 20.843 25.8036 20.1643 24.9943 19.3398ZM24.1351 9.86251L22.2712 11.0742C22.4427 9.93539 22.7865 8.82031 23.3507 7.8018L24.1351 9.86251ZM25.4847 11.3648L27.4223 12.1892L28.6483 16.092L27.7164 17.2317L23.5221 17.4248C22.8105 16.2132 22.3699 14.8804 22.2224 13.4738L25.4847 11.3648ZM32.2047 10.1048L34.878 12.2138L33.8723 15.4133H30.5611L29.5314 12.2138L32.2047 10.1048ZM36.988 12.1892L38.9257 11.3648L42.187 13.4738C42.0405 14.8558 41.5989 16.2132 40.8873 17.4248L36.693 17.2317L35.7611 16.092L36.988 12.1892ZM41.0597 7.8018C41.5989 8.82031 41.9667 9.93539 42.1382 11.0742L40.2743 9.86251L41.0597 7.8018ZM30.1205 22.1521L29.1636 18.6611L30.1693 17.4248H34.2898L35.2956 18.6611L34.3387 22.1521C32.9163 22.4427 31.494 22.4427 30.1205 22.1521ZM36.5953 21.3522L37.1843 19.2432L39.3912 19.3398C38.6067 20.1643 37.6499 20.843 36.5953 21.3522ZM39.6613 5.83857L38.2629 9.47442L35.9086 10.4929L33.2104 8.35934V5.81397L36.2764 3.39067C37.5761 3.9719 38.7293 4.79637 39.6613 5.83857ZM33.946 2.68737L32.2047 4.06938L30.4634 2.68737C31.6166 2.49332 32.7937 2.49332 33.946 2.68737ZM28.133 3.39067L31.199 5.81397V8.35934L28.5008 10.4929L26.1226 9.49902L24.7242 5.86316C25.705 4.79637 26.8582 3.9719 28.133 3.39067Z" fill="#025325"/>
</g>
<mask id="mask1_1007523_36210" style="mask-type:luminance" maskUnits="userSpaceOnUse" x="0" y="21" width="24" height="24">
<path d="M0 21.3477H23.3127V44.2032H0V21.3477Z" fill="white"/>
</mask>
<g mask="url(#mask1_1007523_36210)">
<path d="M22.8845 21.667C22.4928 21.279 21.8549 21.279 21.4622 21.667L0.393153 42.4892C0.000459522 42.8764 0.000459522 43.5068 0.393153 43.8949C0.785846 44.283 1.42374 44.283 1.81551 43.8949L22.8845 23.0727C23.2772 22.6846 23.2772 22.0542 22.8845 21.667Z" fill="#025325"/>
</g>
<path d="M29.8995 25.6419C29.5068 25.2548 28.8698 25.2548 28.4771 25.6419L15.4288 38.5383C15.0361 38.9254 15.0361 39.5559 15.4288 39.9439C15.7966 40.332 16.4096 40.3557 16.8023 39.9922C16.8263 39.9676 16.8263 39.9676 16.8512 39.9439L29.8995 27.0486C30.2921 26.6359 30.2921 26.03 29.8995 25.6419Z" fill="#025325"/>
<path d="M4.83212 30.0062L18.8861 16.1169C19.2788 15.7288 19.2788 15.0984 18.8621 14.7103C18.4694 14.3231 17.8564 14.3231 17.4637 14.7103L3.40975 28.5996C3.01706 28.9877 3.01706 29.6181 3.40975 30.0062C3.82641 30.3214 4.41545 30.3214 4.83212 30.0062Z" fill="#025325"/>
<path d="M39.5135 25.6419L28.4766 36.5504C28.084 36.9376 28.084 37.568 28.4766 37.9561C28.673 38.1502 29.1385 38.6102 29.899 37.9561L40.9359 27.0486C41.3286 26.6605 41.3286 26.03 40.9359 25.6419C40.5441 25.2548 39.9062 25.2548 39.5135 25.6419Z" fill="#025325"/>
<path d="M25.4846 39.5079L23.4732 41.4957C23.0805 41.8829 23.0805 42.5133 23.4732 42.9014C23.841 43.2895 24.454 43.3132 24.8467 42.9497C24.8716 42.926 24.8956 42.926 24.8956 42.9014L26.907 40.9136C27.2997 40.5255 27.2997 39.896 26.907 39.5079C26.5143 39.1198 25.8764 39.1198 25.4846 39.5079Z" fill="#025325"/>
<path d="M29.8992 30.5873C29.5065 30.2001 28.8695 30.2001 28.4768 30.5873L26.4654 32.5751C26.0727 32.9632 26.0727 33.5936 26.4654 33.9808C26.8821 34.3206 27.4711 34.3206 27.8878 33.9808L29.8992 31.9939C30.2919 31.6058 30.2919 30.9754 29.8992 30.5873Z" fill="#025325"/>
<path d="M13.4412 23.6553L11.4308 25.6422C11.0381 26.0303 11.0381 26.6608 11.4308 27.0489C11.8474 27.3877 12.4364 27.3877 12.8531 27.0489L14.8645 25.061C15.2563 24.6729 15.2563 24.0425 14.8645 23.6553C14.4718 23.2672 13.8339 23.2672 13.4412 23.6553Z" fill="#025325"/>
<path d="M10.8414 15.1464L16.8507 9.2075C17.2434 8.82032 17.2434 8.1899 16.8258 7.80181C16.434 7.41372 15.8201 7.41372 15.4283 7.80181L9.41903 13.7407C9.02634 14.1288 9.02634 14.7592 9.443 15.1464C9.83569 15.5099 10.4487 15.5099 10.8414 15.1464Z" fill="#025325"/>
<path d="M5.83798 20.0918L7.84938 18.104C8.24207 17.7168 8.24207 17.0864 7.82449 16.6983C7.43272 16.3102 6.81879 16.3102 6.42702 16.6983L4.41561 18.6861C4.02292 19.0742 4.02292 19.7037 4.41561 20.0918C4.83227 20.407 5.42132 20.407 5.83798 20.0918Z" fill="#025325"/>
<path d="M62.6074 38.1884L64.7128 26.3525H67.6037L65.6605 37.1681L66.7961 38.3925H71.9583L73.507 37.1681L75.4501 26.3525H78.341L76.2355 38.1884L72.8691 40.8413H65.0226L62.6074 38.1884Z" fill="#008037" fill-opacity="0.4"/>
<path d="M85.7695 28.8013H80.4009L80.836 26.3525H94.4641L94.029 28.8013H88.6603L86.5549 40.6372H83.6641L85.7695 28.8013Z" fill="#008037" fill-opacity="0.4"/>
<path d="M96.959 26.3525H107.593L109.573 28.4952L108.976 31.8623L107.449 32.9847L109.16 34.9234L108.522 38.4945L105.775 40.6372H94.4185L96.959 26.3525ZM104.868 38.1884L105.816 37.4742L106.148 35.6376L105.196 34.6173H98.3823L97.7444 38.1884H104.868ZM104.909 32.1685L106.21 31.1481L106.52 29.5156L105.816 28.8013H99.4147L98.8174 32.1685H104.909Z" fill="#008037" fill-opacity="0.4"/>
<path d="M111.389 38.1884L113.059 28.8013L116.426 26.1484H124.789L127.204 28.8013L125.533 38.1884L122.167 40.8413H113.804L111.389 38.1884ZM121.256 38.3925L122.805 37.1681L124.129 29.8216L123.011 28.5972H117.333L115.766 29.8216L114.442 37.1681L115.578 38.3925H121.256Z" fill="#008037" fill-opacity="0.4"/>
<path d="M131.166 26.3525H134.057L131.951 38.1884H140.83L140.395 40.6372H128.625L131.166 26.3525Z" fill="#008037" fill-opacity="0.4"/>
<path d="M145.431 26.3525H148.322L152.411 34.1071L159.266 26.3525H162.157L159.616 40.6372H156.725L158.399 31.2501L152.865 37.3722H150.8L147.455 31.2501L145.781 40.6372H142.891L145.431 26.3525Z" fill="#008037" fill-opacity="0.4"/>
<path d="M165.993 26.3525H178.382L177.947 28.8013H168.448L167.829 32.2705H175.056L174.625 34.7193H167.398L166.778 38.1884H176.483L176.048 40.6372H163.452L165.993 26.3525Z" fill="#008037" fill-opacity="0.4"/>
<path d="M61.6948 37.2871L63.8003 25.4512H66.6911L64.7479 36.2667L65.8836 37.4911H71.0457L72.5944 36.2667L74.5376 25.4512H77.4284L75.3229 37.2871L71.9565 39.9399H64.11L61.6948 37.2871Z" fill="#025325"/>
<path d="M84.8569 27.9H79.4883L79.9234 25.4512H93.5515L93.1164 27.9H87.7477L85.6423 39.7359H82.7515L84.8569 27.9Z" fill="#025325"/>
<path d="M96.0459 25.4512H106.68L108.66 27.5939L108.063 30.961L106.536 32.0833L108.247 34.022L107.609 37.5932L104.862 39.7359H93.5054L96.0459 25.4512ZM103.955 37.2871L104.903 36.5728L105.235 34.7362L104.283 33.7159H97.4692L96.8313 37.2871H103.955ZM103.996 31.2671L105.297 30.2467L105.607 28.6142L104.903 27.9H98.5016L97.9043 31.2671H103.996Z" fill="#025325"/>
<path d="M110.477 37.286L112.147 27.899L115.514 25.2461H123.877L126.292 27.899L124.621 37.286L121.255 39.9389H112.892L110.477 37.286ZM120.344 37.4901L121.893 36.2657L123.217 28.9193L122.099 27.6949H116.421L114.854 28.9193L113.53 36.2657L114.666 37.4901H120.344Z" fill="#025325"/>
<path d="M130.253 25.4512H133.144L131.039 37.2871H139.918L139.483 39.7359H127.713L130.253 25.4512Z" fill="#025325"/>
<path d="M144.519 25.4512H147.409L151.499 33.2057L158.353 25.4512H161.244L158.703 39.7359H155.813L157.487 30.3488L151.952 36.4708H149.887L146.543 30.3488L144.869 39.7359H141.978L144.519 25.4512Z" fill="#025325"/>
<path d="M165.08 25.4512H177.469L177.034 27.9H167.536L166.916 31.3691H174.143L173.712 33.8179H166.485L165.865 37.2871H175.57L175.135 39.7359H162.54L165.08 25.4512Z" fill="#025325"/>
<path d="M53.1856 28.8811H49.9961L50.4423 26.3631H53.628L54.2659 22.8976L58.8861 19.2754H64.9406L64.4944 21.7971H59.7157L56.9134 23.9981L56.4967 26.3631H61.2754L60.8293 28.8811H56.0506L53.853 41.3183H50.9843L53.1856 28.8811Z" fill="#025325"/>
<path d="M51.1045 51.1797H55.1517L56.3084 52.1761V55.5514L55.1517 56.5479H51.1045V51.1797ZM54.8209 55.9375L55.5249 55.3203V52.4096L54.8209 51.7923H51.893V55.9398H54.8209V55.9375Z" fill="#025325"/>
<path d="M60.3159 51.1797H65.1045V51.7923H61.1045V53.5609H64.199V54.1736H61.1045V55.9421H65.189V56.5548H60.3184V51.1797H60.3159Z" fill="#025325"/>
<path d="M68.6216 55.9405H72.2087L72.8306 55.4018V54.6735L72.2087 54.1349H69.6117L68.5396 53.2148V52.1027L69.6117 51.1826H73.3281V51.7953H69.9376L69.3206 52.3339V52.9466L69.9798 53.5245H72.5395L73.6117 54.4447V55.6353L72.5395 56.5554H68.6216V55.9428V55.9405Z" fill="#025325"/>
<path d="M77.3755 51.1797H81.4227L82.5794 52.1761V55.5514L81.4227 56.5479H77.3755V51.1797ZM81.0919 55.9375L81.7959 55.3203V52.4096L81.0919 51.7923H78.164V55.9398H81.0919V55.9375Z" fill="#025325"/>
<path d="M86.5845 51.1797H91.373V51.7923H87.373V53.5609H90.4675V54.1736H87.373V55.9421H91.4576V56.5548H86.587V51.1797H86.5845Z" fill="#025325"/>
<path d="M99.9771 55.9398H101.216V51.7923H99.9771V51.1797H101.957V55.9375H103.196V56.5502H99.9771V55.9375V55.9398Z" fill="#025325"/>
<path d="M106.997 55.94H110.055L110.754 55.3227V54.4789H107.659L106.587 53.5587V52.0236L107.659 51.1035H110.463L111.535 52.0236V55.5539L110.378 56.5503H106.995V55.9376L106.997 55.94ZM110.754 53.8639V52.2548L110.137 51.7162H107.985L107.368 52.2548V53.3298L107.985 53.8639H110.754Z" fill="#025325"/>
<path d="M115.589 55.94H118.646L119.345 55.3227V54.4789H116.251L115.179 53.5587V52.0236L116.251 51.1035H119.054L120.126 52.0236V55.5539L118.97 56.5503H115.587V55.9376L115.589 55.94ZM119.345 53.8639V52.2548L118.728 51.7162H116.577L115.96 52.2548V53.3298L116.577 53.8639H119.345Z" fill="#025325"/>
<path d="M124.181 55.94H127.238L127.937 55.3227V54.4789H124.843L123.771 53.5587V52.0236L124.843 51.1035H127.646L128.718 52.0236V55.5539L127.562 56.5503H124.178V55.9376L124.181 55.94ZM127.937 53.8639V52.2548L127.32 51.7162H125.169L124.552 52.2548V53.3298L125.169 53.8639H127.937Z" fill="#025325"/>
</svg>
